<?xml version="1.0" encoding="UTF-8" standalone="no"?>
<svg width="1024" height="1024" viewBox="0 0 1024 1024" xmlns="http://www.w3.org/2000/svg">
  <!-- Shield background -->
  <path d="M512 80 
           L880 240 
           L820 700 
           Q512 940 204 700 
           L144 240 Z"
        fill="#114B3A"/>
        
  <!-- Dashed inner border -->
  <path d="M512 130 
           L835 260 
           L785 680 
           Q512 885 239 680 
           L189 260 Z"
        fill="none"
        stroke="#FFFFFF"
        stroke-width="24"
        stroke-dasharray="28 24"
        stroke-linejoin="round"/>

  <!-- Shopping cart -->
  <g fill="#FFFFFF">
    <rect x="300" y="500" width="380" height="70" rx="35"/>
    <circle cx="420" cy="610" r="45"/>
    <circle cx="650" cy="610" r="45"/>
    <path d="M300 420 L650 420 
             Q720 420 720 470 
             L720 470 
             Q720 520 650 520 
             L360 520 
             Q300 520 300 470 Z"/>
    <rect x="260" y="390" width="120" height="40" rx="20"/>
  </g>

  <!-- Checkmark -->
  <path d="M360 460 L500 580 L760 320"
        fill="none"
        stroke="#FF7A00"
        stroke-width="90"
        stroke-linecap="round"
        stroke-linejoin="round"/>
</svg>
